<?xml version="1.0" encoding="UTF-8" standalone="no"?>
<!-- Created with Inkscape (http://www.inkscape.org/) -->

<svg
   xmlns:dc="http://purl.org/dc/elements/1.1/"
   xmlns:cc="http://creativecommons.org/ns#"
   xmlns:rdf="http://www.w3.org/1999/02/22-rdf-syntax-ns#"
   xmlns:svg="http://www.w3.org/2000/svg"
   xmlns="http://www.w3.org/2000/svg"
   xmlns:sodipodi="http://sodipodi.sourceforge.net/DTD/sodipodi-0.dtd"
   xmlns:inkscape="http://www.inkscape.org/namespaces/inkscape"
   id="svg4136"
   version="1.1"
   inkscape:version="0.91 r13725"
   width="400"
   height="400"
   viewBox="0 0 400 400"
   sodipodi:docname="gtprinters.svg">
  <metadata
     id="metadata4142">
    <rdf:RDF>
      <cc:Work
         rdf:about="">
        <dc:format>image/svg+xml</dc:format>
        <dc:type
           rdf:resource="http://purl.org/dc/dcmitype/StillImage" />
        <dc:title></dc:title>
      </cc:Work>
    </rdf:RDF>
  </metadata>
  <defs
     id="defs4140" />
  <sodipodi:namedview
     pagecolor="#ffffff"
     bordercolor="#666666"
     borderopacity="1"
     objecttolerance="10"
     gridtolerance="10"
     guidetolerance="10"
     inkscape:pageopacity="0"
     inkscape:pageshadow="2"
     inkscape:window-width="1280"
     inkscape:window-height="697"
     id="namedview4138"
     showgrid="false"
     inkscape:zoom="1.32"
     inkscape:cx="200"
     inkscape:cy="200"
     inkscape:window-x="-8"
     inkscape:window-y="-8"
     inkscape:window-maximized="1"
     inkscape:current-layer="svg4136" />
  <path
     style="fill:#ffbd00;fill-opacity:1"
     d="m 113.93909,373.66204 c -7.11659,-3.7535 -11.86763,-12.88549 -10.41878,-20.02602 1.80441,-8.89293 7.98127,-29.72062 9.99026,-33.68612 3.02974,-5.98031 11.1847,-13.47863 18.27136,-16.80014 l 5.71807,-2.68006 62.5,0 62.5,0 5.71807,2.68006 c 7.08666,3.32151 15.24162,10.81983 18.27136,16.80014 3.32481,6.56275 9.83604,30.67945 9.85992,36.5198 0.027,6.59704 -3.18228,12.69921 -8.54564,16.24888 l -4.15677,2.75112 -82.63438,0.26682 -82.63437,0.26682 -4.4391,-2.3413 z M 43.499996,347.94769 C 27.651246,344.76653 13.786646,334.42756 6.1461858,320.09258 0.15170276,308.84579 -2.4242425e-7,307.24556 -2.4242425e-7,255.2596 l 0,-47.2899 L 200,207.9697 l 200,0 0,47.10566 c 0,51.93354 -0.1762,53.76316 -6.28479,65.2593 -6.15764,11.58846 -16.53818,20.56669 -29.33596,25.37299 -6.15818,2.31275 -8.66115,2.62917 -23.87925,3.01875 l -17,0.4352 -3.88005,-14.84595 c -5.11731,-19.57996 -6.84669,-24.02227 -12.84043,-32.98366 -8.7372,-13.06321 -24.29094,-23.66895 -39.40862,-26.87186 -10.09851,-2.13952 -124.64329,-2.13952 -134.7418,0 -15.11768,3.20291 -30.67142,13.80865 -39.408624,26.87186 -5.97439,8.93246 -7.70269,13.35836 -12.84042,32.88238 l -3.88006,14.74468 -14.5,-0.10424 c -7.975,-0.0573 -16.3,-0.46554 -18.5,-0.90712 z M 353.54137,291.09004 c 11.30418,-5.13478 15.65987,-18.76408 9.66441,-30.24071 -4.76831,-9.12759 -15.12315,-13.5946 -25.21437,-10.87732 -6.0912,1.64019 -13.34891,8.8979 -14.9891,14.9891 -2.93892,10.91432 2.831,22.82658 13.02757,26.896 4.08177,1.62902 13.10682,1.23369 17.51149,-0.76707 z M -2.4242425e-7,178.1798 c 0,-2.08445 0.68777700242425,-6.43046 1.52839604242425,-9.6578 4.98356,-19.13317 20.6702602,-34.55735 39.7113402,-39.04673 9.41175,-2.21904 308.108784,-2.21904 317.520534,0 19.04107,4.48938 34.72778,19.91356 39.71134,39.04673 0.84061,3.22734 1.52839,7.57335 1.52839,9.6578 l 0,3.7899 -200,0 -200.00000024242422,0 0,-3.7899 z M 93.999996,68.355848 c 0,-37.100616 0.0305,-37.668205 2.23926,-41.598054 1.25116,-2.226145 4.047794,-5.044089 6.337854,-6.386154 l 4.09861,-2.401943 93.32428,0 93.32428,0 4.09861,2.401943 c 2.29006,1.342065 5.08669,4.160009 6.33786,6.386154 C 305.96945,30.687643 306,31.255232 306,68.355848 l 0,37.613852 -106,0 -106.000004,0 0,-37.613852 z"
     id="path4146"
     inkscape:connector-curvature="0" />
</svg>
